<svg width="668" height="455" viewBox="0 0 668 455" fill="none" xmlns="http://www.w3.org/2000/svg">
<path d="M143.768 450.776H0.492805C0.379592 450.43 0.266372 450.084 0.153158 449.737C1.10548 449.125 1.99788 448.359 3.03012 447.913C22.0633 439.642 31.6665 424.706 31.9329 404.403C32.5722 356.193 32.6454 307.975 32.8519 259.758C33.0117 221.955 32.5722 184.146 33.2648 146.357C33.671 124.129 24.9802 108.481 4.6284 99.4045C3.44965 98.8784 2.37748 98.0927 0 96.681C3.28985 96.4679 5.28107 96.2215 7.2723 96.2282C53.1837 96.2814 99.1018 96.0284 145.007 96.6544C157.793 96.8275 170.593 99.3312 183.293 101.356C190.518 102.508 195.473 106.869 198.676 113.908C208.732 136.015 219.288 157.896 229.664 179.858C234.439 189.966 238.961 200.207 244.115 210.116C247.904 217.394 246.439 223.807 242.697 230.352C233.007 247.266 218.103 258.193 201.127 266.777C199.236 267.736 197.351 268.714 195.413 269.587C188.208 272.83 187.961 272.949 191.977 280.074C205.576 304.226 218.575 328.771 233.287 352.231C249.436 377.981 273.124 394.235 303.612 398.104C331.03 401.58 354.378 392.191 373.212 371.721C389.468 354.062 398.245 332.62 405.131 310.14C406.63 305.252 408.408 300.457 411.365 295.73C411.551 297.501 411.898 299.272 411.898 301.05C411.911 321.879 412.091 342.715 411.684 363.531C411.585 368.758 410.373 374.298 408.295 379.099C398.092 402.605 387.364 425.878 376.988 449.311C375.256 453.22 372.619 455.071 368.57 454.998C342.358 454.512 315.952 455.77 289.973 453.047C243.256 448.139 206.555 424.686 182.054 384.646C164.373 355.753 148.982 325.442 133.026 295.523C129.823 289.517 126.613 286.034 119.394 286.76C114.252 287.279 108.991 286.634 103.79 286.46C100.36 286.347 99.1151 287.686 99.2949 291.335C100.074 306.91 100.833 322.499 101.053 338.094C101.333 357.571 101.399 377.062 100.967 396.532C100.387 422.542 116.257 440.055 138.533 447.413C140.451 448.046 142.283 448.918 144.154 449.684C144.028 450.05 143.894 450.41 143.768 450.776ZM101.786 192.243C101.672 192.243 101.559 192.257 101.446 192.257C101.446 208.065 101.652 223.88 101.326 239.688C101.22 244.782 103.391 246.221 107.793 246.094C116.85 245.841 125.94 245.948 134.964 245.275C152.499 243.97 167.037 236.805 176.267 221.336C183.925 208.504 186.423 194.281 184.412 179.518C180.815 153.122 163.4 137.58 136.755 136.714C125.967 136.362 115.165 136.415 104.37 136.175C100.614 136.095 99.3882 137.52 99.5946 141.389C100.494 158.329 101.086 175.283 101.786 192.23V192.243ZM392.878 1.47164C397.726 3.63579 402.507 5.96638 407.436 7.93077C420.302 13.0581 427.594 25.5104 424.957 38.8482C423.838 44.5016 422.42 50.1883 420.295 55.5288C408.554 85.0745 396.314 114.427 384.7 144.019C372.885 174.131 361.597 204.449 350.05 234.667C349.73 235.506 349.124 236.239 348.125 237.877C346.653 235.659 345.281 234.128 344.502 232.343C340.66 223.52 336.864 214.677 333.254 205.761C316.605 164.689 299.876 123.65 283.507 82.4708C278.392 69.6124 273.544 56.5476 269.968 43.2031C266.445 30.0451 275.948 13.4244 288.501 7.99738C293.303 5.91979 298.091 3.82889 302.886 1.7513C302.746 1.27186 302.613 0.799058 302.473 0.319616H136.436C138.986 2.4305 141.683 3.32279 144.427 4.02198C164.946 9.22926 181.028 20.6493 190.618 39.5607C199.849 57.7662 208.007 76.5377 216.258 95.2227C236.496 141.063 256.569 186.976 276.621 232.896C295.214 275.467 313.668 318.09 332.282 360.648C333.767 364.044 336.005 367.113 338.455 371.302C339.98 368.652 340.953 367.273 341.619 365.762C352.021 342.129 362.41 318.49 372.752 294.831C391.199 252.62 409.567 210.382 428.047 168.185C444.809 129.909 462.011 91.8266 478.374 53.3779C488.736 29.0262 503.647 10.2348 530.745 3.92878C532.443 3.53591 533.982 2.44384 535.587 1.67806C535.467 1.11871 535.354 0.55935 535.234 0H393.337C393.184 0.492761 393.031 0.985536 392.871 1.47164H392.878ZM507.11 449.318C504.859 448.465 502.602 447.633 500.357 446.754C488.523 442.106 478.913 435.054 475.697 422.023C474.285 416.283 473.413 410.257 473.379 404.357C473.146 353.829 473.153 303.301 473.113 252.773C473.113 250.815 473.366 248.857 473.499 246.9C474.132 246.66 474.764 246.427 475.397 246.187C480.092 252.62 485.007 258.899 489.436 265.505C507.896 293.039 526.337 320.581 544.531 348.282C563.897 377.768 583.496 407.114 601.897 437.192C608.29 447.64 615.669 451.535 627.256 450.164C634.622 449.285 634.988 449.431 635.002 441.973C635.101 384.886 635.175 327.806 635.288 270.719C635.375 227.522 635.501 184.319 635.601 141.123C635.647 121.326 644.392 107.269 662.852 99.5376C664.63 98.7918 666.288 97.7464 668 96.8341C667.847 96.5611 667.687 96.2814 667.534 96.0084H559.481C561.786 98.4323 564.33 99.6908 566.9 100.896C582.251 108.128 590.948 119.714 590.882 137.167C590.855 143.333 591.161 149.506 591.161 155.672C591.161 206.167 591.115 256.655 591.061 307.15C591.061 307.829 590.728 308.508 590.089 310.932C567.733 280.847 549.026 249.969 528.974 220.018C508.928 190.079 489.196 159.927 469.05 129.456C468.111 131.181 467.392 132.306 466.859 133.511C458.322 152.703 449.604 171.814 441.413 191.145C438.669 197.61 435.726 204.596 435.533 211.421C434.713 239.941 434.9 268.488 434.74 297.028C434.534 334.052 434.913 371.089 433.901 408.092C433.401 426.371 424.158 440.228 406.537 447.46C404.905 448.132 403.4 449.125 400.576 450.643H506.87L507.104 449.304L507.11 449.318ZM290.712 347.443C282.168 327.719 273.97 307.842 265.839 287.945C264.513 284.702 262.922 282.691 259.246 282.738C243.849 282.925 228.452 282.898 213.068 283.291C206.974 283.444 205.749 286.034 208.666 291.608C212.595 299.106 216.331 306.744 220.84 313.889C229.257 327.226 237.842 340.351 252.047 348.795C266.651 357.478 282.228 361.753 299.963 362.718C296.38 356.892 292.877 352.457 290.706 347.45L290.712 347.443Z" fill="url(#paint0_linear_2_11)"/>
<defs>
<linearGradient id="paint0_linear_2_11" x1="0" y1="227.496" x2="668.013" y2="227.496" gradientUnits="userSpaceOnUse">
<stop offset="0.370422" stop-color="#888888"/>
<stop offset="1" stop-color="#D5D5D5"/>
</linearGradient>
</defs>
</svg>
